<mxfile host="app.diagrams.net" modified="2022-11-30T02:44:26.061Z" agent="5.0 (Macintosh; Intel Mac OS X 10_15_7) AppleWebKit/537.36 (KHTML, like Gecko) Chrome/107.0.0.0 Safari/537.36" etag="YQpPZnFKie1q_Uh5P0H3" version="20.5.3" type="github">
  <diagram id="N_D29ksy_jvjdBa81bnN" name="第 1 页">
    <mxGraphModel dx="1096" dy="683" grid="1" gridSize="10" guides="1" tooltips="1" connect="1" arrows="1" fold="1" page="1" pageScale="1" pageWidth="827" pageHeight="1169" math="0" shadow="0">
      <root>
        <mxCell id="0" />
        <mxCell id="1" parent="0" />
        <mxCell id="1v9pkHRaAY73gTpPJXot-26" value="" style="rounded=0;whiteSpace=wrap;html=1;fontSize=16;fillColor=#dae8fc;strokeColor=#6c8ebf;labelBackgroundColor=none;" vertex="1" parent="1">
          <mxGeometry x="460" y="450" width="300" height="270" as="geometry" />
        </mxCell>
        <mxCell id="1v9pkHRaAY73gTpPJXot-1" value="" style="whiteSpace=wrap;html=1;shape=mxgraph.basic.document;fillColor=#f5f5f5;strokeColor=#666666;fontColor=#333333;labelBackgroundColor=none;" vertex="1" parent="1">
          <mxGeometry x="80" y="110" width="270" height="230" as="geometry" />
        </mxCell>
        <mxCell id="1v9pkHRaAY73gTpPJXot-2" value="表空间（&lt;span style=&quot;color: rgb(51, 51, 51); font-family: &amp;quot;PingFang SC&amp;quot;, Avenir, Tahoma, Arial, &amp;quot;Lantinghei SC&amp;quot;, &amp;quot;Microsoft Yahei&amp;quot;, &amp;quot;Hiragino Sans GB&amp;quot;, &amp;quot;Microsoft Sans Serif&amp;quot;, &amp;quot;WenQuanYi Micro Hei&amp;quot;, Helvetica, sans-serif; font-size: 16px; text-align: start;&quot;&gt;Tablespace&lt;/span&gt;）" style="text;html=1;align=center;verticalAlign=middle;resizable=0;points=[];autosize=1;strokeColor=#666666;fillColor=#f5f5f5;fontSize=16;labelBackgroundColor=none;fontColor=#333333;" vertex="1" parent="1">
          <mxGeometry x="110" y="70" width="190" height="30" as="geometry" />
        </mxCell>
        <mxCell id="1v9pkHRaAY73gTpPJXot-69" style="edgeStyle=orthogonalEdgeStyle;rounded=0;orthogonalLoop=1;jettySize=auto;html=1;entryX=0;entryY=0.176;entryDx=0;entryDy=0;entryPerimeter=0;fontSize=16;labelBackgroundColor=none;" edge="1" parent="1" source="1v9pkHRaAY73gTpPJXot-3" target="1v9pkHRaAY73gTpPJXot-6">
          <mxGeometry relative="1" as="geometry" />
        </mxCell>
        <mxCell id="1v9pkHRaAY73gTpPJXot-3" value="&lt;span style=&quot;color: rgb(51, 51, 51); font-family: &amp;quot;PingFang SC&amp;quot;, Avenir, Tahoma, Arial, &amp;quot;Lantinghei SC&amp;quot;, &amp;quot;Microsoft Yahei&amp;quot;, &amp;quot;Hiragino Sans GB&amp;quot;, &amp;quot;Microsoft Sans Serif&amp;quot;, &amp;quot;WenQuanYi Micro Hei&amp;quot;, Helvetica, sans-serif; text-align: start;&quot;&gt;段 (Segment)&lt;/span&gt;" style="rounded=0;whiteSpace=wrap;html=1;fontSize=16;fillColor=#ffe6cc;strokeColor=#d79b00;labelBackgroundColor=none;" vertex="1" parent="1">
          <mxGeometry x="100" y="160" width="210" height="40" as="geometry" />
        </mxCell>
        <mxCell id="1v9pkHRaAY73gTpPJXot-4" value="&lt;span style=&quot;color: rgb(51, 51, 51); font-family: &amp;quot;PingFang SC&amp;quot;, Avenir, Tahoma, Arial, &amp;quot;Lantinghei SC&amp;quot;, &amp;quot;Microsoft Yahei&amp;quot;, &amp;quot;Hiragino Sans GB&amp;quot;, &amp;quot;Microsoft Sans Serif&amp;quot;, &amp;quot;WenQuanYi Micro Hei&amp;quot;, Helvetica, sans-serif; text-align: start;&quot;&gt;段 (Segment)&lt;/span&gt;" style="rounded=0;whiteSpace=wrap;html=1;fontSize=16;fillColor=#ffe6cc;strokeColor=#d79b00;labelBackgroundColor=none;" vertex="1" parent="1">
          <mxGeometry x="100" y="210" width="210" height="40" as="geometry" />
        </mxCell>
        <mxCell id="1v9pkHRaAY73gTpPJXot-5" value="&lt;span style=&quot;color: rgb(51, 51, 51); font-family: &amp;quot;PingFang SC&amp;quot;, Avenir, Tahoma, Arial, &amp;quot;Lantinghei SC&amp;quot;, &amp;quot;Microsoft Yahei&amp;quot;, &amp;quot;Hiragino Sans GB&amp;quot;, &amp;quot;Microsoft Sans Serif&amp;quot;, &amp;quot;WenQuanYi Micro Hei&amp;quot;, Helvetica, sans-serif; text-align: start;&quot;&gt;段 (Segment)&lt;/span&gt;" style="rounded=0;whiteSpace=wrap;html=1;fontSize=16;fillColor=#ffe6cc;strokeColor=#d79b00;labelBackgroundColor=none;" vertex="1" parent="1">
          <mxGeometry x="100" y="265" width="210" height="40" as="geometry" />
        </mxCell>
        <mxCell id="1v9pkHRaAY73gTpPJXot-6" value="" style="rounded=0;whiteSpace=wrap;html=1;fontSize=16;fillColor=#ffe6cc;strokeColor=#d79b00;labelBackgroundColor=none;" vertex="1" parent="1">
          <mxGeometry x="460" y="150" width="260" height="170" as="geometry" />
        </mxCell>
        <mxCell id="1v9pkHRaAY73gTpPJXot-9" value="&lt;meta charset=&quot;utf-8&quot;&gt;&lt;span style=&quot;color: rgb(51, 51, 51); font-family: &amp;quot;PingFang SC&amp;quot;, Avenir, Tahoma, Arial, &amp;quot;Lantinghei SC&amp;quot;, &amp;quot;Microsoft Yahei&amp;quot;, &amp;quot;Hiragino Sans GB&amp;quot;, &amp;quot;Microsoft Sans Serif&amp;quot;, &amp;quot;WenQuanYi Micro Hei&amp;quot;, Helvetica, sans-serif; font-size: 16px; font-style: normal; font-variant-ligatures: normal; font-variant-caps: normal; font-weight: 400; letter-spacing: normal; orphans: 2; text-align: start; text-indent: 0px; text-transform: none; widows: 2; word-spacing: 0px; -webkit-text-stroke-width: 0px; text-decoration-thickness: initial; text-decoration-style: initial; text-decoration-color: initial; float: none; display: inline !important;&quot;&gt;段 (Segment)&lt;/span&gt;" style="text;html=1;align=center;verticalAlign=middle;resizable=0;points=[];autosize=1;strokeColor=#d79b00;fillColor=#ffe6cc;fontSize=16;labelBackgroundColor=none;" vertex="1" parent="1">
          <mxGeometry x="530" y="110" width="120" height="30" as="geometry" />
        </mxCell>
        <mxCell id="1v9pkHRaAY73gTpPJXot-27" value="&lt;meta charset=&quot;utf-8&quot;&gt;&lt;span style=&quot;color: rgb(51, 51, 51); font-family: &amp;quot;PingFang SC&amp;quot;, Avenir, Tahoma, Arial, &amp;quot;Lantinghei SC&amp;quot;, &amp;quot;Microsoft Yahei&amp;quot;, &amp;quot;Hiragino Sans GB&amp;quot;, &amp;quot;Microsoft Sans Serif&amp;quot;, &amp;quot;WenQuanYi Micro Hei&amp;quot;, Helvetica, sans-serif; font-size: 16px; font-style: normal; font-variant-ligatures: normal; font-variant-caps: normal; font-weight: 400; letter-spacing: normal; orphans: 2; text-align: start; text-indent: 0px; text-transform: none; widows: 2; word-spacing: 0px; -webkit-text-stroke-width: 0px; text-decoration-thickness: initial; text-decoration-style: initial; text-decoration-color: initial; float: none; display: inline !important;&quot;&gt;区 (Extent)&lt;/span&gt;" style="text;html=1;align=center;verticalAlign=middle;resizable=0;points=[];autosize=1;strokeColor=#6c8ebf;fillColor=#dae8fc;fontSize=16;labelBackgroundColor=none;" vertex="1" parent="1">
          <mxGeometry x="550" y="410" width="100" height="30" as="geometry" />
        </mxCell>
        <mxCell id="1v9pkHRaAY73gTpPJXot-71" style="edgeStyle=orthogonalEdgeStyle;rounded=0;orthogonalLoop=1;jettySize=auto;html=1;fontSize=16;labelBackgroundColor=none;" edge="1" parent="1" source="1v9pkHRaAY73gTpPJXot-45">
          <mxGeometry relative="1" as="geometry">
            <mxPoint x="360" y="492" as="targetPoint" />
          </mxGeometry>
        </mxCell>
        <mxCell id="1v9pkHRaAY73gTpPJXot-45" value="页（Page）" style="rounded=0;whiteSpace=wrap;html=1;fontSize=16;fillColor=#d5e8d4;strokeColor=#82b366;labelBackgroundColor=none;" vertex="1" parent="1">
          <mxGeometry x="480" y="470" width="58.70967741935484" height="44.0625" as="geometry" />
        </mxCell>
        <mxCell id="1v9pkHRaAY73gTpPJXot-46" value="页（Page）" style="rounded=0;whiteSpace=wrap;html=1;fontSize=16;fillColor=#d5e8d4;strokeColor=#82b366;labelBackgroundColor=none;" vertex="1" parent="1">
          <mxGeometry x="547.0967741935484" y="470" width="58.70967741935484" height="44.0625" as="geometry" />
        </mxCell>
        <mxCell id="1v9pkHRaAY73gTpPJXot-47" value="页（Page）" style="rounded=0;whiteSpace=wrap;html=1;fontSize=16;fillColor=#d5e8d4;strokeColor=#82b366;labelBackgroundColor=none;" vertex="1" parent="1">
          <mxGeometry x="614.1935483870968" y="470" width="58.70967741935484" height="44.0625" as="geometry" />
        </mxCell>
        <mxCell id="1v9pkHRaAY73gTpPJXot-48" value="页（Page）" style="rounded=0;whiteSpace=wrap;html=1;fontSize=16;fillColor=#d5e8d4;strokeColor=#82b366;labelBackgroundColor=none;" vertex="1" parent="1">
          <mxGeometry x="681.2903225806451" y="470" width="58.70967741935484" height="44.0625" as="geometry" />
        </mxCell>
        <mxCell id="1v9pkHRaAY73gTpPJXot-49" value="页（Page）" style="rounded=0;whiteSpace=wrap;html=1;fontSize=16;fillColor=#d5e8d4;strokeColor=#82b366;labelBackgroundColor=none;" vertex="1" parent="1">
          <mxGeometry x="480" y="528.75" width="58.70967741935484" height="44.0625" as="geometry" />
        </mxCell>
        <mxCell id="1v9pkHRaAY73gTpPJXot-50" value="页（Page）" style="rounded=0;whiteSpace=wrap;html=1;fontSize=16;fillColor=#d5e8d4;strokeColor=#82b366;labelBackgroundColor=none;" vertex="1" parent="1">
          <mxGeometry x="547.0967741935484" y="528.75" width="58.70967741935484" height="44.0625" as="geometry" />
        </mxCell>
        <mxCell id="1v9pkHRaAY73gTpPJXot-51" value="页（Page）" style="rounded=0;whiteSpace=wrap;html=1;fontSize=16;fillColor=#d5e8d4;strokeColor=#82b366;labelBackgroundColor=none;" vertex="1" parent="1">
          <mxGeometry x="614.1935483870968" y="528.75" width="58.70967741935484" height="44.0625" as="geometry" />
        </mxCell>
        <mxCell id="1v9pkHRaAY73gTpPJXot-52" value="页（Page）" style="rounded=0;whiteSpace=wrap;html=1;fontSize=16;fillColor=#d5e8d4;strokeColor=#82b366;labelBackgroundColor=none;" vertex="1" parent="1">
          <mxGeometry x="681.2903225806451" y="528.75" width="58.70967741935484" height="44.0625" as="geometry" />
        </mxCell>
        <mxCell id="1v9pkHRaAY73gTpPJXot-53" value="页（Page）" style="rounded=0;whiteSpace=wrap;html=1;fontSize=16;fillColor=#d5e8d4;strokeColor=#82b366;labelBackgroundColor=none;" vertex="1" parent="1">
          <mxGeometry x="480" y="592.3958333333334" width="58.70967741935484" height="44.0625" as="geometry" />
        </mxCell>
        <mxCell id="1v9pkHRaAY73gTpPJXot-54" value="页（Page）" style="rounded=0;whiteSpace=wrap;html=1;fontSize=16;fillColor=#d5e8d4;strokeColor=#82b366;labelBackgroundColor=none;" vertex="1" parent="1">
          <mxGeometry x="547.0967741935484" y="592.3958333333334" width="58.70967741935484" height="44.0625" as="geometry" />
        </mxCell>
        <mxCell id="1v9pkHRaAY73gTpPJXot-55" value="页（Page）" style="rounded=0;whiteSpace=wrap;html=1;fontSize=16;fillColor=#d5e8d4;strokeColor=#82b366;labelBackgroundColor=none;" vertex="1" parent="1">
          <mxGeometry x="614.1935483870968" y="592.3958333333334" width="58.70967741935484" height="44.0625" as="geometry" />
        </mxCell>
        <mxCell id="1v9pkHRaAY73gTpPJXot-56" value="页（Page）" style="rounded=0;whiteSpace=wrap;html=1;fontSize=16;fillColor=#d5e8d4;strokeColor=#82b366;labelBackgroundColor=none;" vertex="1" parent="1">
          <mxGeometry x="681.2903225806451" y="592.3958333333334" width="58.70967741935484" height="44.0625" as="geometry" />
        </mxCell>
        <mxCell id="1v9pkHRaAY73gTpPJXot-57" value="页（Page）" style="rounded=0;whiteSpace=wrap;html=1;fontSize=16;fillColor=#d5e8d4;strokeColor=#82b366;labelBackgroundColor=none;" vertex="1" parent="1">
          <mxGeometry x="480" y="660.9375" width="58.70967741935484" height="44.0625" as="geometry" />
        </mxCell>
        <mxCell id="1v9pkHRaAY73gTpPJXot-58" value="页（Page）" style="rounded=0;whiteSpace=wrap;html=1;fontSize=16;fillColor=#d5e8d4;strokeColor=#82b366;labelBackgroundColor=none;" vertex="1" parent="1">
          <mxGeometry x="547.0967741935484" y="660.9375" width="58.70967741935484" height="44.0625" as="geometry" />
        </mxCell>
        <mxCell id="1v9pkHRaAY73gTpPJXot-59" value="页（Page）" style="rounded=0;whiteSpace=wrap;html=1;fontSize=16;fillColor=#d5e8d4;strokeColor=#82b366;labelBackgroundColor=none;" vertex="1" parent="1">
          <mxGeometry x="614.1935483870968" y="660.9375" width="58.70967741935484" height="44.0625" as="geometry" />
        </mxCell>
        <mxCell id="1v9pkHRaAY73gTpPJXot-60" value="页（Page）" style="rounded=0;whiteSpace=wrap;html=1;fontSize=16;fillColor=#d5e8d4;strokeColor=#82b366;labelBackgroundColor=none;" vertex="1" parent="1">
          <mxGeometry x="681.2903225806451" y="660.9375" width="58.70967741935484" height="44.0625" as="geometry" />
        </mxCell>
        <mxCell id="1v9pkHRaAY73gTpPJXot-62" value="" style="rounded=0;whiteSpace=wrap;html=1;fontSize=16;fillColor=#d5e8d4;strokeColor=#82b366;labelBackgroundColor=none;" vertex="1" parent="1">
          <mxGeometry x="75" y="456.78" width="280" height="240" as="geometry" />
        </mxCell>
        <mxCell id="1v9pkHRaAY73gTpPJXot-63" value="&lt;meta charset=&quot;utf-8&quot;&gt;&lt;span style=&quot;color: rgb(0, 0, 0); font-family: Helvetica; font-size: 16px; font-style: normal; font-variant-ligatures: normal; font-variant-caps: normal; font-weight: 400; letter-spacing: normal; orphans: 2; text-align: center; text-indent: 0px; text-transform: none; widows: 2; word-spacing: 0px; -webkit-text-stroke-width: 0px; text-decoration-thickness: initial; text-decoration-style: initial; text-decoration-color: initial; float: none; display: inline !important;&quot;&gt;页（Page）&lt;/span&gt;" style="text;html=1;align=center;verticalAlign=middle;resizable=0;points=[];autosize=1;strokeColor=#82b366;fillColor=#d5e8d4;fontSize=16;labelBackgroundColor=none;" vertex="1" parent="1">
          <mxGeometry x="160" y="416.78" width="110" height="30" as="geometry" />
        </mxCell>
        <mxCell id="1v9pkHRaAY73gTpPJXot-64" value="&lt;span style=&quot;color: rgb(51, 51, 51); font-family: &amp;quot;PingFang SC&amp;quot;, Avenir, Tahoma, Arial, &amp;quot;Lantinghei SC&amp;quot;, &amp;quot;Microsoft Yahei&amp;quot;, &amp;quot;Hiragino Sans GB&amp;quot;, &amp;quot;Microsoft Sans Serif&amp;quot;, &amp;quot;WenQuanYi Micro Hei&amp;quot;, Helvetica, sans-serif; text-align: start;&quot;&gt;行 （row)&lt;/span&gt;" style="rounded=0;whiteSpace=wrap;html=1;fontSize=16;fillColor=#e1d5e7;strokeColor=#9673a6;labelBackgroundColor=none;" vertex="1" parent="1">
          <mxGeometry x="95" y="471.78" width="230" height="40" as="geometry" />
        </mxCell>
        <mxCell id="1v9pkHRaAY73gTpPJXot-65" value="&lt;span style=&quot;color: rgb(51, 51, 51); font-family: &amp;quot;PingFang SC&amp;quot;, Avenir, Tahoma, Arial, &amp;quot;Lantinghei SC&amp;quot;, &amp;quot;Microsoft Yahei&amp;quot;, &amp;quot;Hiragino Sans GB&amp;quot;, &amp;quot;Microsoft Sans Serif&amp;quot;, &amp;quot;WenQuanYi Micro Hei&amp;quot;, Helvetica, sans-serif; text-align: start;&quot;&gt;行 （row)&lt;/span&gt;" style="rounded=0;whiteSpace=wrap;html=1;fontSize=16;fillColor=#e1d5e7;strokeColor=#9673a6;labelBackgroundColor=none;" vertex="1" parent="1">
          <mxGeometry x="95" y="531.78" width="230" height="40" as="geometry" />
        </mxCell>
        <mxCell id="1v9pkHRaAY73gTpPJXot-66" value="&lt;span style=&quot;color: rgb(51, 51, 51); font-family: &amp;quot;PingFang SC&amp;quot;, Avenir, Tahoma, Arial, &amp;quot;Lantinghei SC&amp;quot;, &amp;quot;Microsoft Yahei&amp;quot;, &amp;quot;Hiragino Sans GB&amp;quot;, &amp;quot;Microsoft Sans Serif&amp;quot;, &amp;quot;WenQuanYi Micro Hei&amp;quot;, Helvetica, sans-serif; text-align: start;&quot;&gt;行 （row)&lt;/span&gt;" style="rounded=0;whiteSpace=wrap;html=1;fontSize=16;fillColor=#e1d5e7;strokeColor=#9673a6;labelBackgroundColor=none;" vertex="1" parent="1">
          <mxGeometry x="95" y="586.78" width="230" height="40" as="geometry" />
        </mxCell>
        <mxCell id="1v9pkHRaAY73gTpPJXot-67" value="&lt;span style=&quot;color: rgb(51, 51, 51); font-family: &amp;quot;PingFang SC&amp;quot;, Avenir, Tahoma, Arial, &amp;quot;Lantinghei SC&amp;quot;, &amp;quot;Microsoft Yahei&amp;quot;, &amp;quot;Hiragino Sans GB&amp;quot;, &amp;quot;Microsoft Sans Serif&amp;quot;, &amp;quot;WenQuanYi Micro Hei&amp;quot;, Helvetica, sans-serif; text-align: start;&quot;&gt;行 （row)&lt;/span&gt;" style="rounded=0;whiteSpace=wrap;html=1;fontSize=16;fillColor=#e1d5e7;strokeColor=#9673a6;labelBackgroundColor=none;" vertex="1" parent="1">
          <mxGeometry x="95" y="646.78" width="230" height="40" as="geometry" />
        </mxCell>
        <mxCell id="1v9pkHRaAY73gTpPJXot-70" style="edgeStyle=orthogonalEdgeStyle;rounded=0;orthogonalLoop=1;jettySize=auto;html=1;entryX=0.75;entryY=0;entryDx=0;entryDy=0;fontSize=16;exitX=0.5;exitY=1;exitDx=0;exitDy=0;labelBackgroundColor=none;" edge="1" parent="1" source="1v9pkHRaAY73gTpPJXot-19" target="1v9pkHRaAY73gTpPJXot-26">
          <mxGeometry relative="1" as="geometry">
            <mxPoint x="690" y="290" as="sourcePoint" />
          </mxGeometry>
        </mxCell>
        <mxCell id="1v9pkHRaAY73gTpPJXot-16" value="&lt;span style=&quot;color: rgb(51, 51, 51); font-family: &amp;quot;PingFang SC&amp;quot;, Avenir, Tahoma, Arial, &amp;quot;Lantinghei SC&amp;quot;, &amp;quot;Microsoft Yahei&amp;quot;, &amp;quot;Hiragino Sans GB&amp;quot;, &amp;quot;Microsoft Sans Serif&amp;quot;, &amp;quot;WenQuanYi Micro Hei&amp;quot;, Helvetica, sans-serif; text-align: start;&quot;&gt;区 (Extent)&lt;/span&gt;" style="rounded=0;whiteSpace=wrap;html=1;fontSize=16;fillColor=#dae8fc;strokeColor=#6c8ebf;labelBackgroundColor=none;" vertex="1" parent="1">
          <mxGeometry x="480" y="190" width="107.8125" height="40" as="geometry" />
        </mxCell>
        <mxCell id="1v9pkHRaAY73gTpPJXot-17" value="&lt;span style=&quot;color: rgb(51, 51, 51); font-family: &amp;quot;PingFang SC&amp;quot;, Avenir, Tahoma, Arial, &amp;quot;Lantinghei SC&amp;quot;, &amp;quot;Microsoft Yahei&amp;quot;, &amp;quot;Hiragino Sans GB&amp;quot;, &amp;quot;Microsoft Sans Serif&amp;quot;, &amp;quot;WenQuanYi Micro Hei&amp;quot;, Helvetica, sans-serif; text-align: start;&quot;&gt;区 (Extent)&lt;/span&gt;" style="rounded=0;whiteSpace=wrap;html=1;fontSize=16;fillColor=#dae8fc;strokeColor=#6c8ebf;labelBackgroundColor=none;" vertex="1" parent="1">
          <mxGeometry x="602.1875" y="190" width="107.8125" height="40" as="geometry" />
        </mxCell>
        <mxCell id="1v9pkHRaAY73gTpPJXot-18" value="&lt;span style=&quot;color: rgb(51, 51, 51); font-family: &amp;quot;PingFang SC&amp;quot;, Avenir, Tahoma, Arial, &amp;quot;Lantinghei SC&amp;quot;, &amp;quot;Microsoft Yahei&amp;quot;, &amp;quot;Hiragino Sans GB&amp;quot;, &amp;quot;Microsoft Sans Serif&amp;quot;, &amp;quot;WenQuanYi Micro Hei&amp;quot;, Helvetica, sans-serif; text-align: start;&quot;&gt;区 (Extent)&lt;/span&gt;" style="rounded=0;whiteSpace=wrap;html=1;fontSize=16;fillColor=#dae8fc;strokeColor=#6c8ebf;labelBackgroundColor=none;" vertex="1" parent="1">
          <mxGeometry x="480" y="250" width="107.8125" height="40" as="geometry" />
        </mxCell>
        <mxCell id="1v9pkHRaAY73gTpPJXot-19" value="&lt;span style=&quot;color: rgb(51, 51, 51); font-family: &amp;quot;PingFang SC&amp;quot;, Avenir, Tahoma, Arial, &amp;quot;Lantinghei SC&amp;quot;, &amp;quot;Microsoft Yahei&amp;quot;, &amp;quot;Hiragino Sans GB&amp;quot;, &amp;quot;Microsoft Sans Serif&amp;quot;, &amp;quot;WenQuanYi Micro Hei&amp;quot;, Helvetica, sans-serif; text-align: start;&quot;&gt;区 (Extent)&lt;/span&gt;" style="rounded=0;whiteSpace=wrap;html=1;fontSize=16;fillColor=#dae8fc;strokeColor=#6c8ebf;labelBackgroundColor=none;" vertex="1" parent="1">
          <mxGeometry x="602.1875" y="250" width="107.8125" height="40" as="geometry" />
        </mxCell>
      </root>
    </mxGraphModel>
  </diagram>
</mxfile>
